<svg xmlns="http://www.w3.org/2000/svg" xmlns:xlink="http://www.w3.org/1999/xlink" version="1.1" x="0px" y="0px" viewBox="0 0 100 125" enable-background="new 0 0 100 100" xml:space="preserve"><g><g><g><rect x="7.192" y="81.105" width="85.617" height="14.27"/><path d="M92.809,4.625H7.192c-0.414,0-0.75,0.336-0.75,0.75v14.27c0,0.414,0.336,0.75,0.75,0.75h85.617     c0.414,0,0.75-0.336,0.75-0.75V5.375C93.559,4.961,93.223,4.625,92.809,4.625z M77.788,17.834L66.08,6.125h11.709L77.788,17.834     L77.788,17.834z M50.75,6.125h11.709L50.75,17.834V6.125z M49.25,17.834L37.541,6.125H49.25V17.834z M22.212,6.125H33.92     L22.212,17.834V6.125z M20.712,17.834L9.003,6.125h11.709V17.834z M34.981,7.185v11.709H23.272L34.981,7.185z M36.481,7.185     L48.19,18.894H36.481V7.185z M63.52,7.185v11.709H51.811L63.52,7.185z M65.02,7.185l11.709,11.709H65.02V7.185z M79.288,6.125     h11.709L79.288,17.834V6.125z M7.942,7.185l11.709,11.709H7.942V7.185z M80.35,18.894L92.059,7.185v11.709H80.35z"/></g><path d="M45.975,32.161V20.937c0-2.223,1.802-4.025,4.025-4.025c2.223,0,4.025,1.802,4.025,4.025v11.224H45.975z"/><g><path d="M65.086,27.082l7.936-7.936c1.572-1.572,4.121-1.572,5.692,0s1.572,4.121,0,5.692l-7.937,7.936L65.086,27.082z"/><path d="M34.914,27.082l-7.936-7.936c-1.572-1.572-4.121-1.572-5.692,0c-1.571,1.572-1.572,4.121,0,5.692l7.936,7.936     L34.914,27.082z"/></g><g><rect x="55.398" y="78.775" width="6.531" height="2.916"/></g><g><path d="M35.459,47.512c1.412,1.559,3.82,1.681,5.381,0.266c1.561-1.412,1.681-3.818,0.266-5.381     c-1.41-1.557-3.82-1.678-5.379-0.266C34.167,43.545,34.048,45.953,35.459,47.512z"/><path d="M49.932,45.452l-4.075,6.393l-6.621-1.37c-0.072-0.019-0.582-0.109-0.718-0.115c-0.499-0.018-0.968,0.088-1.397,0.273     l-0.145,0.073c-0.255,0.126-6.584,4.333-6.584,4.333c-0.601,0.396-0.869,1.143-0.651,1.83l2.349,5.986l2.231-0.701l-1.141-5.092     l1.91-1.258l-0.291,7.903c-0.008,0.24,0.011,0.476,0.053,0.698l-0.005,7.682l-0.416,9.572l3.201,0.275l1.236-9.58l0.009-0.174     l0.002-3.554l1.017,3.035l0.179,10.123l3.055,0.092l0.806-10.452c0.007-0.24-0.029-0.479-0.104-0.703L41.27,63.1l0.328-8.843     l4.756,0.984c0.107,0.021,0.218,0.032,0.326,0.032c0.571,0,1.111-0.31,1.4-0.816l3.969-7.804L49.932,45.452z"/></g><g><path d="M56.203,52.143l2.273-2.271c-0.086-0.233-0.219-0.454-0.4-0.64c-0.695-0.694-1.821-0.694-2.514,0     c-0.694,0.692-0.694,1.818,0,2.512C55.749,51.928,55.969,52.057,56.203,52.143z"/><polygon points="61.54,56.002 62.286,55.256 58.672,50.355 56.639,52.389    "/></g><rect x="58.164" y="51.619" width="1" height="28.287"/></g></g><text x="0" y="115" fill="#000000" font-size="5px" font-weight="bold" font-family="'Helvetica Neue', Helvetica, Arial-Unicode, Arial, Sans-serif">Created by Juan Pablo Bravo</text><text x="0" y="120" fill="#000000" font-size="5px" font-weight="bold" font-family="'Helvetica Neue', Helvetica, Arial-Unicode, Arial, Sans-serif">from the Noun Project</text></svg>