<svg xmlns:dc="http://purl.org/dc/elements/1.1/" xmlns:cc="http://creativecommons.org/ns#" xmlns:rdf="http://www.w3.org/1999/02/22-rdf-syntax-ns#" xmlns:svg="http://www.w3.org/2000/svg" xmlns="http://www.w3.org/2000/svg" xmlns:sodipodi="http://sodipodi.sourceforge.net/DTD/sodipodi-0.dtd" xmlns:inkscape="http://www.inkscape.org/namespaces/inkscape" viewBox="0 0 6.3499999 7.93750025" version="1.1" x="0px" y="0px"><g transform="translate(0,-290.64999)"><path style="" d="M 5.2304688 1 L 5.2304688 2.2695312 A 8.4615386 8.4615386 0 0 0 9.0683594 9.3554688 A 3.1580571 3.1580571 0 0 1 9.0683594 14.644531 A 8.4615386 8.4615386 0 0 0 5.2304688 21.730469 L 5.2304688 23 L 18.769531 23 L 18.769531 21.730469 A 8.4615386 8.4615386 0 0 0 14.931641 14.644531 A 3.1580571 3.1580571 0 0 1 14.931641 9.3554688 A 8.4615386 8.4615386 0 0 0 18.769531 2.2695312 L 18.769531 1 L 5.2304688 1 z M 6.2304688 2 L 17.769531 2 L 17.769531 2.2695312 A 7.4615383 7.4615383 0 0 1 14.384766 8.5175781 A 4.158057 4.158057 0 0 0 14.384766 15.482422 A 7.4615383 7.4615383 0 0 1 17.769531 21.730469 L 17.769531 22 L 6.2304688 22 L 6.2304688 21.730469 A 7.4615383 7.4615383 0 0 1 9.6152344 15.482422 A 4.158057 4.158057 0 0 0 9.6152344 8.5175781 A 7.4615383 7.4615383 0 0 1 6.2304688 2.2695312 L 6.2304688 2 z " transform="matrix(0.26458334,0,0,0.26458334,0,290.64999)" fill="#000000" stroke="none"/><path style="" d="m 1.9912168,292.1052 h 2.3675698 a 1.841907,1.841907 0 0 1 -0.6248998,0.68769 1.2324443,1.2324443 0 0 0 -0.5588801,1.0321 1.2324443,1.2324443 0 0 0 -0.5588899,-1.0321 1.841907,1.841907 0 0 1 -0.6249,-0.68769 z" fill="#000000" stroke="none"/><path style="" d="m 2.4360468,296.33853 0.7389599,-0.73895 0.73895,0.73895 z" fill="#000000" stroke="none"/></g><text x="0" y="21.3500002" fill="#000000" font-size="5px" font-weight="bold" font-family="'Helvetica Neue', Helvetica, Arial-Unicode, Arial, Sans-serif">Created by Pham Duy Phuong Hung</text><text x="0" y="26.3500002" fill="#000000" font-size="5px" font-weight="bold" font-family="'Helvetica Neue', Helvetica, Arial-Unicode, Arial, Sans-serif">from the Noun Project</text></svg>