<svg xmlns="http://www.w3.org/2000/svg" xmlns:xlink="http://www.w3.org/1999/xlink" version="1.1" x="0px" y="0px" viewBox="0 0 24 30" style="enable-background:new 0 0 24 24;" xml:space="preserve"><title>sound-on</title><g><path d="M19.1,4.9c-0.4-0.4-1-0.4-1.4,0c-0.4,0.4-0.4,1-0.1,1.4l0,0c0,0,0,0,0,0c3.1,3.1,3.1,8.2,0,11.3c-0.4,0.4-0.4,1,0,1.4   c0.4,0.4,1,0.4,1.4,0C23,15.2,23,8.8,19.1,4.9z"/><path d="M10.4,4.2L5.7,8H3C2.4,8,2,8.4,2,9v6c0,0.5,0.3,0.9,0.8,1v0h0.1c0,0,0.1,0,0.1,0s0.1,0,0.1,0h2.5l4.8,3.8   c0.2,0.1,0.4,0.2,0.6,0.2c0.6,0,1-0.4,1-1V5c0-0.2-0.1-0.4-0.2-0.6C11.4,3.9,10.8,3.9,10.4,4.2z M10,16.9l-3.4-2.7c0,0,0,0,0,0   C6.4,14.1,6.3,14,6.1,14v0H4v-4h2c0.2,0,0.4-0.1,0.6-0.2L10,7.1V16.9z"/><path d="M16.2,7.8c-0.4-0.4-1-0.4-1.4,0s-0.4,1,0,1.4c1.6,1.6,1.6,4.1,0,5.7c-0.4,0.4-0.4,1,0,1.4s1,0.4,1.4,0c0,0,0,0,0,0   C18.6,13.9,18.6,10.1,16.2,7.8z"/></g><text x="0" y="39" fill="#000000" font-size="5px" font-weight="bold" font-family="'Helvetica Neue', Helvetica, Arial-Unicode, Arial, Sans-serif">Created by Xiaoying Huang</text><text x="0" y="44" fill="#000000" font-size="5px" font-weight="bold" font-family="'Helvetica Neue', Helvetica, Arial-Unicode, Arial, Sans-serif">from the Noun Project</text></svg>