<svg xmlns="http://www.w3.org/2000/svg" data-name="Layer 1" viewBox="0 0 100 125" x="0px" y="0px"><title>Artboard 10</title><path d="M31.51,80h37A13.53,13.53,0,0,0,82,66.49v-.12a13.52,13.52,0,0,0-1.85-6.82L66.81,36.72l5.73-10.85a4,4,0,1,0-7.07-3.73l-3.41,6.46-1.47-2.51L60.54,26a12.29,12.29,0,0,0-21.07,0l-.05.09L19.84,59.69A13.51,13.51,0,0,0,31.51,80Zm30.9-34.95L68.81,56H56.63ZM46.33,30.12a4.29,4.29,0,0,1,7.35,0l4,6.8L47.59,56H31.25ZM26.61,64H73.45A5.5,5.5,0,0,1,74,66.37v.12A5.51,5.51,0,0,1,68.49,72h-37a5.49,5.49,0,0,1-4.9-8Z"/><text x="0" y="115" fill="#000000" font-size="5px" font-weight="bold" font-family="'Helvetica Neue', Helvetica, Arial-Unicode, Arial, Sans-serif">Created by Gregor Cresnar</text><text x="0" y="120" fill="#000000" font-size="5px" font-weight="bold" font-family="'Helvetica Neue', Helvetica, Arial-Unicode, Arial, Sans-serif">from the Noun Project</text></svg>